<?xml version="1.0" encoding="utf-8"?>
<!-- Generator: Adobe Illustrator 22.1.0, SVG Export Plug-In . SVG Version: 6.00 Build 0)  -->
<svg version="1.1" id="Capa_1" xmlns="http://www.w3.org/2000/svg" xmlns:xlink="http://www.w3.org/1999/xlink" x="0px" y="0px"
	 viewBox="0 0 480 480" style="enable-background:new 0 0 480 480;" xml:space="preserve">
<style type="text/css">
	.st0{fill:#CE9BEA;}
	.st1{fill:#BD86E0;}
	.st2{fill:#A3E5E3;}
	.st3{fill:#82D1CD;}
	.st4{fill:#FFCD00;}
	.st5{fill:#FFEB99;}
	.st6{fill:#FFF2BB;}
	.st7{fill:#8DCE82;}
	.st8{fill:#5B3726;}
	.st9{fill:#B9B9B9;}
	.st10{fill:#DBDBDB;}
	.st11{fill:#CCFFFC;}
	.st12{fill:#7EE080;}
	.st13{fill:#BE163A;}
	.st14{fill:#A0F0F2;}
	.st15{fill:#7DE2E2;}
	.st16{fill:#F1476F;}
	.st17{fill:#F982A1;}
	.st18{fill:#FFA6BB;}
	.st19{fill:#533222;}
	.st20{fill:#FFCC75;}
	.st21{fill:#FFA836;}
	.st22{fill:#F4CA62;}
</style>
<g>
	<path class="st0" d="M196,92.9c0,36.7-29.7,66.4-66.4,66.4s-66.4-29.7-66.4-66.4S93,26.5,129.6,26.5S196,56.2,196,92.9z"/>
	<path class="st1" d="M99,92.9c0-30.5,20.5-56.1,48.5-63.9c-5.7-1.6-11.7-2.4-17.9-2.4c-36.7,0-66.4,29.7-66.4,66.4
		s29.7,66.4,66.4,66.4c6.2,0,12.2-0.8,17.9-2.4C119.5,149,99,123.3,99,92.9z"/>
	<path class="st2" d="M129.6,44.2c0-4.2-3.4-7.6-7.6-7.6H94.5c-6.5,4.1-12.2,9.2-17,15.2H122C126.2,51.8,129.6,48.4,129.6,44.2z"/>
	<path class="st3" d="M127.2,38.6c-1.4-1.2-3.2-2-5.1-2H94.5c-6.5,4.1-12.2,9.2-17,15.2h35.7C117.2,46.8,121.9,42.3,127.2,38.6z"/>
	<g>
		<path class="st2" d="M154.5,116.2c0,4.2,3.4,7.6,7.6,7.6h26.2c2.5-4.8,4.5-9.9,5.8-15.2h-32C158,108.6,154.5,112,154.5,116.2z"/>
		<path class="st2" d="M179.2,64.7c-4.2,0-7.6,3.4-7.6,7.6c0,4.2,3.4,7.6,7.6,7.6h15.6c-1.1-5.3-2.7-10.4-5-15.2H179.2z"/>
		<path class="st2" d="M100,129.2c0-7.6-6.9-7.6-6.9-7.6H89c-3.7,0-6.7-3-6.7-6.7s3-6.7,6.7-6.7h24.5c4.2,0,7.6-3.4,7.6-7.6
			c0-4.2-3.4-7.6-7.6-7.6H63.3c0,16.8,6.3,32.2,16.6,43.9h12.6C96.6,136.8,100,133.3,100,129.2z"/>
	</g>
	<path class="st3" d="M63.3,92.9c0,16.8,6.3,32.2,16.6,43.9h12.6c4.2,0,7.6-3.4,7.6-7.6c0-7.6-6.9-7.6-6.9-7.6H89
		c-3.7,0-6.7-3-6.7-6.7s3-6.7,6.7-6.7h11.7c-1.1-4.9-1.8-10-1.8-15.2H63.3z"/>
	<path class="st2" d="M143.1,136c0,4.4-3.6,8-8,8c-4.4,0-8-3.6-8-8c0-4.4,3.6-8,8-8C139.5,127.9,143.1,131.5,143.1,136z"/>
</g>
<path class="st4" d="M392,464.5H88l152-248L392,464.5z"/>
<path class="st5" d="M248,376.5l-48,88h96L248,376.5z"/>
<path class="st6" d="M248,376.5l72,40l-24,48L248,376.5z"/>
<path class="st5" d="M240,216.5l-152,248h48L240,216.5z"/>
<g>
	<path class="st7" d="M416,160.5h16v312h-16V160.5z"/>
	<path class="st7" d="M48,268.6h16v203.9H48V268.6z"/>
</g>
<path class="st8" d="M0,461.9h480v18.7H0V461.9z"/>
<path class="st9" d="M452,62.5h-5.2c-4.3-17.1-21.7-27.4-38.8-23c-11.2,2.8-20,11.5-23,22.7c0,0.1,0,0.2-0.1,0.4H380
	c-11,0-20,9-20,20s9,20,20,20h72c11,0,20-9,20-20S463,62.5,452,62.5z"/>
<path class="st10" d="M456,82.5c0-11-9-20-20-20h-5.2c-2.8-11.1-11.4-19.9-22.5-22.9h-0.1c-11.2,2.8-20,11.4-23.1,22.6
	c0,0.1,0,0.2-0.1,0.4h-5c-11,0-20,9-20,20s9,20,20,20h56C447,102.6,456,93.6,456,82.5C456,82.6,456,82.6,456,82.5L456,82.5z"/>
<g>
	<path class="st9" d="M99.1,141.8H85.6c-1.2-15.5-14.6-27.3-30.1-26.6c-16.8,0.1-30.3,13.8-30.2,30.5c0.1,15.2,11.4,28,26.4,30v0.2
		h47.5c9.4,0.1,17.2-7.4,17.4-16.8c0.1-9.4-7.4-17.2-16.8-17.4C99.5,141.8,99.3,141.8,99.1,141.8L99.1,141.8z"/>
	<path class="st10" d="M90.5,150.5H76.9c-1.2-15.5-14.6-27.3-30.1-26.6c-6,0-11.7,1.7-16.7,5c-9.2,14-5.3,32.8,8.6,42
		c3.9,2.5,8.3,4.2,13,4.8v0.2h47.5c2.4,0,4.7-0.5,7-1.5c3.8-8.6,0-18.7-8.6-22.5C95.2,151,92.8,150.5,90.5,150.5z"/>
</g>
<g>
	<path class="st11" d="M331,167.5h-16v-16h16V167.5z"/>
	<path class="st11" d="M368,136.5h-16v-16h16V136.5z"/>
	<path class="st11" d="M196,208.5h16v16h-16V208.5z"/>
	<path class="st11" d="M155.3,185.5h16v16h-16V185.5z"/>
	<path class="st11" d="M123.3,232h16v16h-16V232z"/>
	<path class="st11" d="M251,185.5h-16v-16h16V185.5z"/>
	<path class="st11" d="M291,143.5h-16v-16h16V143.5z"/>
</g>
<g>
	<path class="st12" d="M96,364.9l-40-40l-40,40L4.7,353.5l45.7-45.7c3.1-3.1,8.2-3.1,11.3,0l45.7,45.7L96,364.9z"/>
	<path class="st12" d="M96,316.9l-40-40l-40,40L4.7,305.5l45.7-45.7c3.1-3.1,8.2-3.1,11.3,0l45.7,45.7L96,316.9z"/>
	<path class="st12" d="M96,412.9l-40-40l-40,40L4.7,401.5l45.7-45.7c3.1-3.1,8.2-3.1,11.3,0l45.7,45.7L96,412.9z"/>
	<path class="st12" d="M464,252.9l-40-40l-40,40l-11.3-11.3l45.7-45.7c3.1-3.1,8.2-3.1,11.3,0l45.7,45.7L464,252.9z"/>
	<path class="st12" d="M464,204.9l-40-40l-40,40l-11.3-11.3l45.7-45.7c3.1-3.1,8.2-3.1,11.3,0l45.7,45.7L464,204.9z"/>
	<path class="st12" d="M464,300.9l-40-40l-40,40l-11.3-11.3l45.7-45.7c3.1-3.1,8.2-3.1,11.3,0l45.7,45.7L464,300.9z"/>
	<path class="st12" d="M464,348.9l-40-40l-40,40l-11.3-11.3l45.7-45.7c3.1-3.1,8.2-3.1,11.3,0l45.7,45.7L464,348.9z"/>
</g>
</svg>
